<svg xmlns="http://www.w3.org/2000/svg" aria-hidden="true" overflow="hidden" style="width:0;height:0;position:absolute"><defs><symbol id="heart" viewBox="0 0 18 18"><path fill="none" stroke="var(--color1)" stroke-linecap="round" stroke-linejoin="round" d="M15.63 3.457c-.747-.747-1.778-1.209-2.917-1.209s-2.171.462-2.917 1.209l-.795.795-.795-.795a4.126 4.126 0 0 0-5.835 5.835l6.63 6.63 6.63-6.63c.747-.747 1.209-1.778 1.209-2.917s-.462-2.171-1.209-2.917h0z"/></symbol><symbol id="home" viewBox="0 0 18 18"><path fill="none" stroke="var(--color1)" stroke-linecap="round" stroke-linejoin="round" d="M2.25 6.75 9 1.5l6.75 5.25V15a1.5 1.5 0 0 1-1.5 1.5v0H3.75a1.5 1.5 0 0 1-1.5-1.5v0-8.25z"/><path fill="none" stroke="var(--color1)" stroke-linecap="round" stroke-linejoin="round" d="M6.75 16.5V9h4.5v7.5"/></symbol><symbol id="heart-activ" viewBox="0 0 18 18"><path d="M5.25 2.25c-2.071 0-3.751 1.662-3.751 3.712 0 1.655.657 5.583 7.117 9.555a.74.74 0 0 0 .771-.001l-.003.002c6.46-3.971 7.117-7.9 7.117-9.555 0-2.051-1.68-3.712-3.751-3.712-2.07 0-3.75 2.25-3.75 2.25s-1.68-2.25-3.75-2.25z"/></symbol><symbol id="heart-pas" viewBox="0 0 18 18"><path fill="none" stroke-linecap="round" stroke-linejoin="round" stroke-width="1.125" d="M5.25 2.25c-2.071 0-3.751 1.662-3.751 3.712 0 1.655.657 5.583 7.117 9.555a.735.735 0 0 0 .771-.002l-.003.002c6.46-3.971 7.117-7.9 7.117-9.555 0-2.051-1.68-3.712-3.751-3.712C10.68 2.25 9 4.5 9 4.5S7.32 2.25 5.25 2.25z"/></symbol><symbol id="gilka-up" viewBox="0 0 18 18"><path d="M2.115 14.143 0 12.186l9-8.329 9 8.329-2.115 1.957L9 7.785l-6.885 6.358z"/></symbol><symbol id="dilka-bottom" viewBox="0 0 18 18"><path d="M2.115 5.143 0 7.1l9 8.329L18 7.1l-2.115-1.957L9 11.501 2.115 5.143z"/></symbol><symbol id="book-open" viewBox="0 0 18 18"><path fill="none" stroke="var(--color1)" stroke-linecap="round" stroke-linejoin="round" d="M1.5 2.25H6a3 3 0 0 1 3 3v10.5a2.25 2.25 0 0 0-2.25-2.25v0H1.5V2.25zm15 0H12a3 3 0 0 0-3 3v10.5a2.25 2.25 0 0 1 2.25-2.25v0h5.25V2.25z"/></symbol><symbol id="Frame" viewBox="0 0 18 18"><path d="M12.75 2.25h3a.75.75 0 0 1 .75.75v12.001a.75.75 0 0 1-.75.75H2.25a.75.75 0 0 1-.75-.75V3a.75.75 0 0 1 .75-.75h3V.75h1.5v1.5h4.5V.75h1.5v1.5zm2.25 6H2.999v5.999H15V8.25zm-3.75-4.5h-4.5v1.499h-1.5V3.75H3v3h12.001v-3h-2.25v1.499h-1.5V3.75zm-6.75 6H6v1.5H4.5v-1.5zm3.75 0h1.499v1.5H8.25v-1.5zm3.75 0h1.5v1.5H12v-1.5z"/></symbol><symbol id="search" viewBox="0 0 19 18"><path d="M7.894 13.5a6.48 6.48 0 0 0 3.866-1.266l3.471 3.297 1.116-1.061-3.471-3.297a5.743 5.743 0 0 0 1.334-3.672V7.5c0-3.308-2.833-6.001-6.316-6.001S1.579 4.191 1.579 7.5s2.833 6 6.315 6zm0-10.5c2.613 0 4.737 2.018 4.737 4.5S10.507 12 7.894 12c-2.612 0-4.737-2.018-4.737-4.5S5.282 3 7.894 3z"/></symbol><symbol id="moon" viewBox="0 0 18 18"><path fill="none" stroke="var(--color5)" stroke-linecap="round" stroke-linejoin="round" stroke-width="1.286" d="M15.75 9.592c-.329 3.45-3.212 6.127-6.72 6.127a6.75 6.75 0 0 1-.649-13.467l.027-.002a5.25 5.25 0 0 0 7.356 7.333l-.014.01z"/></symbol><symbol id="toggle-light" viewBox="0 0 34 18"><path fill="var(--color6, #fff)" d="M8.571.687h17.142A8.313 8.313 0 0 1 34.026 9v-.001a8.313 8.313 0 0 1-8.313 8.313H8.571A8.313 8.313 0 0 1 .258 8.999V9A8.313 8.313 0 0 1 8.571.687z"/><path fill="var(--color7)" d="M14.571 9A6.857 6.857 0 1 1 .857 9a6.857 6.857 0 0 1 13.714 0z"/><path fill="none" stroke="var(--color7)" stroke-width=".519" d="M8.571.687h17.142A8.313 8.313 0 0 1 34.026 9v-.001a8.313 8.313 0 0 1-8.313 8.313H8.571A8.313 8.313 0 0 1 .258 8.999V9A8.313 8.313 0 0 1 8.571.687z"/></symbol><symbol id="sun" viewBox="0 0 18 18"><path fill="none" stroke="var(--color7)" stroke-linecap="round" stroke-linejoin="round" stroke-width="1.286" d="M9 1v1.455m0 13.09V17M3.343 3.343l1.033 1.033m9.25 9.25 1.033 1.033M1 9h1.455m13.09 0H17M3.343 14.658l1.033-1.033m9.249-9.25 1.033-1.033M12.637 9a3.636 3.636 0 0 1-7.272 0v0a3.636 3.636 0 0 1 7.272 0v0z"/></symbol><symbol id="Toggle_dark" viewBox="0 0 36 18"><path d="M9 .45h18a8.55 8.55 0 0 1 0 17.1H9A8.55 8.55 0 0 1 9 .45z"/><path fill="var(--color6, #fff)" d="M34.2 9a7.2 7.2 0 1 1-14.401-.001A7.2 7.2 0 0 1 34.2 9z"/><path fill="none" stroke="var(--color6, #fff)" stroke-width=".9" d="M9 .45h18a8.55 8.55 0 0 1 0 17.1H9A8.55 8.55 0 0 1 9 .45z"/></symbol><symbol id="icon-loading" viewBox="0 0 18 18"><path fill="none" stroke="var(--color1)" stroke-linecap="round" stroke-linejoin="round" stroke-width="1.125" d="M9 1.5V3m3.75-.495L12 3.804m3.495 1.446L14.196 6m2.305 3h-1.5m.495 3.75L14.197 12m-1.446 3.495-.75-1.299M9 16.5V15m-3.75.495L6 14.196M2.505 12.75 3.804 12M1.5 9H3m-.495-3.75L3.804 6M5.25 2.505 6 3.804"/></symbol><symbol id="location" viewBox="0 0 18 18"><path d="M9 1.125a6.194 6.194 0 0 0-6.187 6.186v.01c0 1.398.469 2.687 1.257 3.718l-.011-.015s.169.222.196.253L9 16.874l4.747-5.599c.025-.03.194-.251.194-.251l.001-.002a6.081 6.081 0 0 0 1.247-3.703v-.008a6.194 6.194 0 0 0-6.188-6.187zm0 8.438a2.25 2.25 0 1 1 0-4.5 2.25 2.25 0 1 1 0 4.5z"/></symbol><symbol id="touch" viewBox="0 0 18 18"><path d="M12.24 6.741a1.293 1.293 0 0 1 1.391.382l.001.002c.113.13.198.281.254.453l.809 2.485c.123.362.195.779.195 1.213a3.86 3.86 0 0 1-.441 1.798l.01-.021a4.067 4.067 0 0 1-.921 1.177l-.005.004c-.379.333-.83.596-1.325.761l-.027.008a4.365 4.365 0 0 1-1.869.208l.019.002a5.104 5.104 0 0 1-1.819-.548l.028.013-4.048-2.06a1.377 1.377 0 0 1-.67-.78l-.003-.01a1.272 1.272 0 0 1-.06-.544v.006c.019-.178.066-.346.143-.505s.183-.293.319-.404.293-.2.471-.268a1.306 1.306 0 0 1 1.043.088l-.007-.003.916.46-.708-2.174a3.001 3.001 0 0 1-.852-.238l.019.008a2.967 2.967 0 0 1-.722-.45l.004.004a3.393 3.393 0 0 1-.569-.618l-.007-.01a2.688 2.688 0 0 1-.377-.758l-.005-.019a2.9 2.9 0 0 1-.139-1.212l-.001.012c.039-.417.153-.799.328-1.145l-.008.018c.182-.362.423-.667.713-.917l.004-.003c.298-.256.65-.459 1.036-.589l.022-.006a2.892 2.892 0 0 1 1.211-.138l-.012-.001c.417.038.8.152 1.146.328l-.018-.008c.362.182.667.423.917.713l.003.004c.26.302.459.655.595 1.059a3.042 3.042 0 0 1-.238 2.43l.008-.015a1.205 1.205 0 0 1 .479.063l-.008-.003c.151.052.293.129.427.233a1.317 1.317 0 0 1 1.214-.405l-.008-.001c.217.038.412.132.585.282a1.3 1.3 0 0 1 .556-.36zm-7.984-.608c.11.334.289.621.521.854.242.246.524.424.846.533l-.539-1.655a1.307 1.307 0 0 1 .079-1.006l-.003.007a1.313 1.313 0 0 1 2.153-.265l.001.002c.114.129.199.281.255.453l.539 1.657c.187-.262.318-.577.369-.917l.001-.012a2.14 2.14 0 0 0-.086-1.012l.004.015a2.14 2.14 0 0 0-1.07-1.252l-.012-.006a2.306 2.306 0 0 0-.794-.231l-.01-.001c-.287-.03-.573 0-.857.093s-.535.234-.75.423a2.204 2.204 0 0 0-.746 1.457l-.001.009c-.026.286.007.571.099.855zm8.802 1.715a.418.418 0 0 0-.215-.25l-.002-.001a.415.415 0 0 0-.334-.027l.003-.001c-.147.048-.235.122-.265.222s-.031.213-.004.338c.026.125.067.259.124.403s.099.275.129.395c.029.119.028.234-.003.344s-.121.185-.271.224c-.159.052-.283.037-.372-.044s-.165-.199-.23-.355a2.472 2.472 0 0 1-.147-.486l-.003-.016a2.507 2.507 0 0 0-.156-.52l.006.017c-.065-.155-.139-.272-.221-.35s-.209-.094-.38-.048c-.147.048-.235.122-.264.222s-.031.213-.005.338.068.26.124.403c.056.144.099.276.128.395s.029.234-.002.344c-.031.11-.121.185-.271.224-.16.052-.284.037-.372-.044a1 1 0 0 1-.23-.354 2.462 2.462 0 0 1-.147-.487l-.003-.016a2.48 2.48 0 0 0-.156-.519l.006.017a1.02 1.02 0 0 0-.221-.35c-.083-.078-.21-.094-.381-.048-.147.048-.235.122-.264.222s-.031.213-.005.338.068.26.124.404c.056.143.099.275.128.395s.028.233-.002.344-.121.185-.271.224a.408.408 0 0 1-.333-.029l.002.001a.421.421 0 0 1-.217-.248l-.001-.003-1.349-4.141a.424.424 0 0 0-.215-.25l-.002-.001a.407.407 0 0 0-.198-.05.44.44 0 0 0-.136.022l.003-.001a.418.418 0 0 0-.25.215l-.001.002a.407.407 0 0 0-.05.198.44.44 0 0 0 .022.136l-.001-.003 1.657 5.092a.734.734 0 0 1-.04.567l.002-.004a.603.603 0 0 1-.176.222l-.001.001a1.24 1.24 0 0 1-.253.147.764.764 0 0 1-.583-.042l.004.002-1.191-.607a.457.457 0 0 0-.372-.03l.003-.001a.465.465 0 0 0-.277.238l-.001.003a.488.488 0 0 0-.034.381l-.001-.004c.04.123.126.222.238.277l.003.001 4.051 2.067c.48.244.967.391 1.46.441a3.732 3.732 0 0 0 1.539-.178l-.026.008a2.94 2.94 0 0 0 1.055-.596l-.003.003a3.078 3.078 0 0 0 1.038-2.029L14 11.54a3.05 3.05 0 0 0-.142-1.23l.006.022-.808-2.485z"/></symbol><symbol id="gilka-ok" viewBox="0 0 18 18"><path d="M16.189 3.594a.601.601 0 0 0-.413.182L6.6 12.952 2.824 9.176a.6.6 0 1 0-.848.848l4.2 4.2a.6.6 0 0 0 .848 0l9.6-9.6a.6.6 0 0 0-.418-1.03h-.018.001z"/></symbol></defs></svg>