<svg aria-hidden="true" style="width:0;height:0;position:absolute;overflow:hidden" xmlns="http://www.w3.org/2000/svg"><defs><symbol id="icon-read" viewBox="0 0 32 32"><path d="M32 16c0 8.837-7.163 16-16 16S0 24.837 0 16 7.163 0 16 0s16 7.163 16 16z"/><path stroke="#f4f4f4" stroke-linecap="round" stroke-linejoin="round" style="stroke:var(--color2,#f4f4f4)" d="M8.5 9.25H13a3.004 3.004 0 0 1 3 3v10.5a2.25 2.25 0 0 0-2.25-2.25H8.5V9.25zM23.5 9.25H19a3.004 3.004 0 0 0-3 3v10.5a2.25 2.25 0 0 1 2.25-2.25h5.25V9.25z"/></symbol><symbol id="icon-heart" viewBox="0 0 32 32"><path d="M32 16c0 8.837-7.163 16-16 16S0 24.837 0 16 7.163 0 16 0s16 7.163 16 16z"/><path stroke="#f4f4f4" stroke-linecap="round" stroke-linejoin="round" style="stroke:var(--color2,#f4f4f4)" d="M22.631 10.457a4.111 4.111 0 0 0-4.496-.895 4.09 4.09 0 0 0-1.338.895l-.795.795-.795-.795a4.125 4.125 0 0 0-5.836 0 4.125 4.125 0 0 0 0 5.835l6.63 6.63 6.63-6.63a4.111 4.111 0 0 0 .895-4.496 4.116 4.116 0 0 0-.895-1.338v0z"/></symbol><symbol id="icon-home" viewBox="0 0 32 32"><path stroke="#f4f4f4" style="stroke:var(--color2,#f4f4f4)" d="M31.5 16c0 8.56-6.94 15.5-15.5 15.5S.5 24.56.5 16C.5 7.44 7.44.5 16 .5S31.5 7.44 31.5 16z"/><path stroke="#f4f4f4" stroke-linecap="round" stroke-linejoin="round" style="stroke:var(--color2,#f4f4f4)" d="M9.25 13.75 16 8.5l6.75 5.25V22a1.503 1.503 0 0 1-1.5 1.5h-10.5a1.503 1.503 0 0 1-1.5-1.5v-8.25z"/><path stroke="#f4f4f4" stroke-linecap="round" stroke-linejoin="round" style="stroke:var(--color2,#f4f4f4)" d="M13.75 23.5V16h4.5v7.5"/></symbol><symbol id="icon-chevron-right" viewBox="0 0 32 32"><path stroke="#f4f4f4" stroke-width="2.667" stroke-linecap="round" stroke-linejoin="round" style="stroke:var(--color2,#f4f4f4)" d="m12 24 8-8-8-8"/></symbol></defs></svg>