<svg aria-hidden="true" style="width:0;height:0;position:absolute;overflow:hidden" xmlns="http://www.w3.org/2000/svg"><defs><symbol id="icon-css3" viewBox="0 0 32 32"><path fill="#131313" style="fill:var(--color1,#131313)" d="M22.308 1.464h-1.846l1.92 2.083v.992h-3.954V3.378h1.919l-1.919-2.083V.302h3.88v1.162zm-4.664 0h-1.846l1.92 2.083v.992h-3.954V3.378h1.92l-1.92-2.083V.302h3.88v1.162zm-4.618.048h-1.992V3.33h1.992v1.21H9.618V.303h3.408v1.21z"/><path fill="#1572b6" style="fill:var(--color2,#1572b6)" d="M6.903 29.177 4.879 6.474h22.242l-2.026 22.7-9.108 2.526-9.083-2.522z"/><path fill="#33a9dc" style="fill:var(--color3,#33a9dc)" d="m16 29.768 7.36-2.041 1.732-19.398h-9.091v21.438z"/><path fill="#fff" style="fill:var(--color4,#fff)" d="M16 16.555h3.684l.255-2.851H16V10.92h6.982l-.067.747-.684 7.673H16v-2.784z"/><path fill="#ebebeb" style="fill:var(--color5,#ebebeb)" d="m16.017 23.787-.012.003-3.101-.837-.198-2.221H9.911l.39 4.372 5.704 1.583.013-.004v-2.897z"/><path fill="#fff" style="fill:var(--color4,#fff)" d="m19.448 19.221-.335 3.729-3.105.838v2.897l5.708-1.582.042-.471.485-5.412h-2.794z"/><path fill="#ebebeb" style="fill:var(--color5,#ebebeb)" d="M16.01 10.919v2.784H9.284l-.056-.626-.127-1.412-.067-.747h6.975zM16 16.555v2.785h-3.062l-.056-.626-.127-1.412-.067-.747h3.311z"/></symbol><symbol id="icon-html5" viewBox="0 0 32 32"><path fill="#e44d26" style="fill:var(--color6,#e44d26)" d="M6.963 29.088 4.952 6.535h22.094l-2.013 22.549-9.048 2.508z"/><path fill="#f16529" style="fill:var(--color7,#f16529)" d="m16 29.676 7.311-2.027 1.72-19.269H16z"/><path fill="#ebebeb" style="fill:var(--color5,#ebebeb)" d="M16 16.744h-3.66l-.252-2.833h3.913v-2.766H9.065l.066.742.68 7.622h6.19zm0 7.184-.012.003-3.08-.832-.197-2.206H9.934l.387 4.343 5.666 1.573.013-.004z"/><path style="fill:var(--color8,#000)" d="M7.008.407h1.405v1.389h1.286V.407h1.406v4.205H9.699V3.204H8.413v1.408H7.007V.407zm5.946 1.395h-1.238V.407h3.881v1.395h-1.238v2.811h-1.406V1.802zm3.26-1.395h1.465l.902 1.478.901-1.478h1.466v4.205h-1.4V2.528l-.967 1.495h-.024l-.968-1.495v2.084h-1.375V.407zm5.434 0h1.406v2.816h1.977v1.39h-3.383V.407z"/><path fill="#fff" style="fill:var(--color4,#fff)" d="M15.991 16.744v2.766h3.406l-.321 3.587-3.085.833v2.878l5.671-1.572.041-.468.65-7.282.067-.742h-.745zm0-5.598v2.766h6.681l.055-.622.126-1.402.066-.742z"/></symbol><symbol id="icon-JavaScript" viewBox="0 0 32 32"><path d="M26.507 2.667H5.48c-.8 0-1.413.693-1.32 1.48l2.4 21.627c.053.533.44.987.96 1.133l8.107 2.32c.24.067.493.067.733 0l8.107-2.32c.52-.147.893-.6.96-1.133l2.4-21.627a1.325 1.325 0 0 0-1.32-1.48zM15.16 21.32c0 .32-.147.613-.4.8a.986.986 0 0 1-.88.16l-4.16-1.2a.995.995 0 0 1-.68-1.24c.147-.533.707-.827 1.24-.68l2.88.827V9.347c0-.547.453-1 1-1s1 .453 1 1V21.32zM23 20.133c0 .453-.307.853-.76.973l-4.8 1.2c-.08.027-.16.027-.24.027a1.01 1.01 0 0 1-.973-.76.997.997 0 0 1 .733-1.213L21 19.347V17.08l-3.053.44a.981.981 0 0 1-.8-.24 1.023 1.023 0 0 1-.347-.76v-6.6c0-.493.36-.92.853-.987l4.2-.6c.547-.08 1.053.307 1.133.853s-.307 1.053-.853 1.133l-3.347.48v4.573l3.053-.44c.293-.04.573.04.8.24.213.187.347.467.347.76v4.2h.013z"/></symbol><symbol id="icon-newYorkTimes" viewBox="0 0 32 32"><path d="M28.363 19.753h-.131a10.174 10.174 0 0 1-5.817 5.977v-5.977l3.259-2.909-3.259-2.909V9.863a5.222 5.222 0 0 0 5.236-5.12c0-3.505-3.345-4.741-5.236-4.741a5.707 5.707 0 0 0-1.455.16v.175h.741A1.964 1.964 0 0 1 24 2.111a1.904 1.904 0 0 1-2.065 1.818c-3.259 0-7.097-2.647-11.272-2.647a5.978 5.978 0 0 0-6.284 5.571 4.16 4.16 0 0 0 3.301 4.276v-.16a1.975 1.975 0 0 1-.901-1.819A2.459 2.459 0 0 1 9.41 6.877c.015.003.031.004.045.005 3.505 0 9.163 2.909 12.668 2.909h.131v4.189l-3.259 2.909 3.259 2.909v6.065a12.48 12.48 0 0 1-4.044.625 9.005 9.005 0 0 1-6.152-2.021l5.905-2.647V9.933l-8.261 3.636a8.73 8.73 0 0 1 4.785-5.207v-.131C8.466 9.57 3.636 13.888 3.636 19.838c0 6.924 5.367 12.16 13.091 12.16 8.015 0 11.636-5.817 11.636-11.752v-.495zm-16.552 4.495a9.163 9.163 0 0 1-2.676-6.88 10.942 10.942 0 0 1 .495-3.461l2.735-1.251v11.301l-.553.291z"/></symbol><symbol id="icon-nodeJS" viewBox="0 0 32 32"><path d="M15.815 25.8a.66.66 0 0 1-.305-.08l-.96-.57c-.145-.08-.075-.11-.025-.125.19-.065.23-.08.435-.2.02-.01.05-.005.07.005l.74.44a.096.096 0 0 0 .09 0l2.89-1.67a.095.095 0 0 0 .045-.08v-3.335c0-.035-.015-.065-.045-.08l-2.89-1.665a.095.095 0 0 0-.09 0l-2.89 1.665c-.03.015-.045.05-.045.08v3.335c0 .03.02.06.045.075l.79.455c.43.215.695-.04.695-.29v-3.295c0-.045.035-.085.085-.085h.365c.045 0 .085.035.085.085v3.295c0 .575-.31.9-.855.9-.165 0-.3 0-.665-.18l-.76-.435a.618.618 0 0 1-.305-.525v-3.335a.6.6 0 0 1 .305-.525l2.89-1.67a.62.62 0 0 1 .605 0l2.89 1.67c.185.11.305.31.305.525v3.335a.6.6 0 0 1-.305.525l-2.89 1.67a.554.554 0 0 1-.3.085zm2.335-3.29c0-.625-.42-.79-1.31-.91-.9-.12-.99-.18-.99-.39 0-.175.075-.405.74-.405.595 0 .815.13.905.53.01.04.04.065.08.065h.375c.025 0 .045-.01.06-.025.015-.02.025-.04.02-.065-.06-.69-.515-1.01-1.44-1.01-.825 0-1.315.35-1.315.93 0 .635.49.805 1.28.885.945.095 1.02.23 1.02.415 0 .325-.26.46-.87.46-.765 0-.935-.19-.99-.57-.005-.04-.04-.07-.085-.07h-.375a.084.084 0 0 0-.085.085c0 .485.265 1.065 1.53 1.065.925 0 1.45-.36 1.45-.99zm2.725-2.505c0 .305-.25.555-.555.555s-.555-.25-.555-.555c0-.315.26-.555.555-.555a.55.55 0 0 1 .555.555zm-.09 0c0-.26-.21-.465-.47-.465a.468.468 0 0 0 0 .935.476.476 0 0 0 .47-.47zm-.225.31h-.13a7.169 7.169 0 0 1-.025-.195c-.01-.035-.02-.055-.065-.055h-.11v.25h-.12v-.625h.215c.075 0 .22 0 .22.165 0 .115-.075.14-.12.155.085.005.09.06.105.14.005.05.015.135.03.165zm-.14-.44c0-.085-.06-.085-.09-.085h-.1v.175h.095c.08 0 .095-.055.095-.09zM6.865 12.75a.364.364 0 0 0-.185-.32l-3.065-1.765a.395.395 0 0 0-.17-.05h-.03c-.06 0-.115.02-.17.05L.185 12.43a.37.37 0 0 0-.185.32l.005 4.75c0 .065.035.125.09.16s.125.035.185 0l1.82-1.045a.376.376 0 0 0 .185-.32v-2.22c0-.13.07-.255.185-.32l.775-.445c.06-.035.12-.05.185-.05s.13.015.185.05l.775.445a.37.37 0 0 1 .185.32v2.22c0 .13.07.255.185.32l1.82 1.045c.055.035.13.035.185 0a.185.185 0 0 0 .09-.16l.01-4.75zm16.76-5.185v8.82a.37.37 0 0 1-.185.32l-3.065 1.77a.375.375 0 0 1-.37 0l-3.065-1.77a.37.37 0 0 1-.185-.32v-3.54c0-.13.07-.255.185-.32l3.065-1.77a.375.375 0 0 1 .37 0l.765.44a.13.13 0 0 0 .195-.11v-4.7c0-.14.15-.23.275-.16l1.825 1.02c.115.06.19.185.19.32zm-2.3 6.445a.095.095 0 0 0-.045-.08l-1.05-.61a.106.106 0 0 0-.095 0l-1.05.61c-.03.015-.045.045-.045.08v1.215c0 .035.02.065.045.08l1.05.605c.03.015.065.015.09 0l1.05-.605c.03-.015.045-.045.045-.08V14.01zm10.49-.035a.37.37 0 0 0 .185-.32V12.8a.37.37 0 0 0-.185-.32l-3.045-1.77a.375.375 0 0 0-.37 0l-3.065 1.77a.37.37 0 0 0-.185.32v3.54c0 .135.07.255.185.32l3.045 1.735c.11.065.25.065.365 0l1.84-1.025a.183.183 0 0 0 0-.32L27.5 15.28a.185.185 0 0 1-.095-.16v-1.11c0-.065.035-.125.095-.16l.96-.555a.176.176 0 0 1 .185 0l.96.555a.196.196 0 0 1 .095.16v.87c0 .14.155.23.28.16l1.835-1.065zm-3.865.175c-.02.015-.035.035-.035.06v.68c0 .025.015.05.035.06l.59.34a.06.06 0 0 0 .07 0l.59-.34c.02-.015.035-.035.035-.06v-.68a.07.07 0 0 0-.035-.06l-.59-.34a.06.06 0 0 0-.07 0l-.59.34zm-12.71 2.175v-3.52a.38.38 0 0 0-.195-.32l-3.055-1.76a.375.375 0 0 0-.37 0l-3.055 1.76a.373.373 0 0 0-.195.32v3.52c0 .14.095.26.2.32l3.06 1.76c.12.07.26.065.37 0l3.05-1.76a.372.372 0 0 0 .19-.32zm-3.715-6.245-.04.025h.055l-.015-.025zm3.81 6.51-.02-.035v.045l.02-.01z"/></symbol><symbol id="icon-Rest-API" viewBox="0 0 32 32"><path fill="#01b5e6" style="fill:var(--color9,#01b5e6)" d="M20.787 11.015a.237.237 0 0 0-.333-.044l-.292.221a1.827 1.827 0 0 0-.422-.267l.054-.396a.236.236 0 0 0-.203-.267l-.492-.067a.238.238 0 0 0-.267.204l-.05.362a1.846 1.846 0 0 0-.486.11l-.242-.318a.237.237 0 0 0-.332-.045l-.395.3a.236.236 0 0 0-.045.331l.221.292a1.91 1.91 0 0 0-.266.421l-.396-.054a.238.238 0 0 0-.267.203l-.067.492c-.019.13.073.25.203.267l.362.05c.015.168.052.331.11.486l-.318.242a.237.237 0 0 0-.045.332l.3.395a.237.237 0 0 0 .332.045l.292-.221c.126.105.269.196.421.266l-.054.396c-.017.13.073.25.203.267l.492.067c.13.017.25-.073.267-.203l.05-.362c.169-.015.332-.052.487-.11l.242.318a.238.238 0 0 0 .332.045l.395-.3a.237.237 0 0 0 .046-.332l-.222-.292a1.8 1.8 0 0 0 .267-.421l.396.054c.13.019.25-.073.267-.203l.067-.492a.237.237 0 0 0-.203-.267l-.362-.05a1.846 1.846 0 0 0-.11-.486l.318-.242a.237.237 0 0 0 .045-.332l-.3-.395zm-8.464 6.948v-1.91h.984c.183 0 .322.015.418.047a.44.44 0 0 1 .233.174.534.534 0 0 1 .089.31.533.533 0 0 1-.068.274.532.532 0 0 1-.186.188.69.69 0 0 1-.207.075.524.524 0 0 1 .153.071c.022.016.053.05.094.101s.068.091.082.119l.287.552h-.667l-.315-.582a.447.447 0 0 0-.107-.147.253.253 0 0 0-.145-.044h-.052v.773h-.593v-.001zm2.081 3.326h-1.102l-.159.519h-.993l1.184-3.148h1.065l1.18 3.148H14.56l-.156-.519zm-.206-.682-.344-1.132-.345 1.132h.689zm1.61-1.947h1.618c.353 0 .617.083.792.251s.263.408.263.717c0 .318-.096.567-.287.747s-.484.269-.876.269h-.534v1.165h-.976v-3.148zm.976 1.345h.24c.189 0 .322-.032.398-.098a.316.316 0 0 0 .115-.25c0-.098-.034-.183-.1-.251s-.191-.103-.374-.103h-.279v.703zm2.091-1.345h.976v3.148h-.976V18.66zm-5.959-1.832h.249a.853.853 0 0 0 .156-.027.156.156 0 0 0 .096-.06.175.175 0 0 0 .037-.111c0-.061-.02-.11-.059-.142-.039-.034-.112-.05-.22-.05h-.259v.39zm1.398-.775h1.58v.407h-.987v.304h.916v.389h-.916v.376h1.016v.432h-1.609v-1.909zm1.749 1.278.56-.035c.012.091.037.16.074.207a.316.316 0 0 0 .26.116c.083 0 .149-.02.194-.059s.068-.086.068-.138c0-.05-.022-.094-.065-.133s-.144-.075-.302-.111c-.258-.058-.442-.135-.553-.232s-.167-.219-.167-.368c0-.098.029-.191.086-.278s.142-.156.257-.206c.115-.05.271-.074.47-.074.244 0 .429.045.558.137.127.091.204.235.228.434l-.554.034c-.015-.087-.046-.151-.093-.189a.3.3 0 0 0-.196-.059c-.068 0-.12.015-.155.044s-.052.065-.052.107c0 .03.015.057.043.082a.5.5 0 0 0 .197.071c.258.056.443.112.554.169s.193.127.243.212a.53.53 0 0 1 .076.282.63.63 0 0 1-.386.573c-.122.053-.274.08-.46.08-.324 0-.55-.063-.675-.188a.753.753 0 0 1-.213-.478zm1.818-1.278h1.795v.472h-.602v1.438h-.59v-1.438h-.603v-.472zm-1.986-4.534a3.675 3.675 0 0 0-.638.007c-.652.063-1.285.3-1.808.706-.605.469-1.065 1.17-1.242 2.1l-.056.291-.289.051c-.284.05-.537.118-.759.205a2.516 2.516 0 0 0-.575.308c-.134.097-.25.206-.348.324a1.965 1.965 0 0 0-.442 1.285c.003.47.156.945.439 1.335.105.145.227.278.366.394.141.117.3.214.478.287.101.042.208.076.321.104v.867a3.173 3.173 0 0 1-.644-.186 2.691 2.691 0 0 1-.7-.42 2.984 2.984 0 0 1-.509-.546 3.18 3.18 0 0 1-.598-1.831 2.81 2.81 0 0 1 .639-1.835 2.74 2.74 0 0 1 .502-.468 3.36 3.36 0 0 1 .769-.411 4.56 4.56 0 0 1 .637-.194c.255-1.012.797-1.791 1.495-2.332a4.35 4.35 0 0 1 2.248-.879 4.56 4.56 0 0 1 1.277.057 1.08 1.08 0 0 0-.022.116l-.001.007c-.008.066-.012.132-.008.199a1.028 1.028 0 0 0-.248.14l-.003.002a1.05 1.05 0 0 0-.278.318zm6.124 2.223a3.414 3.414 0 0 1 .54.637c.37.57.56 1.33.552 2.075-.008.73-.205 1.458-.608 1.992-.263.349-.6.633-1.003.859a4.752 4.752 0 0 1-.927.388v-.897c.183-.068.353-.145.509-.232.304-.17.553-.377.74-.626.289-.385.432-.931.438-1.49.007-.587-.137-1.176-.416-1.604a2.481 2.481 0 0 0-.369-.444c.006-.058.008-.117.005-.176.089-.035.172-.082.248-.14l.003-.002a1.04 1.04 0 0 0 .289-.34zm-2.935-2.068a.976.976 0 1 1-1.098.835.977.977 0 0 1 1.099-.835z"/></symbol><symbol id="icon-sass" viewBox="0 0 32 32"><path d="M15.092 22.146c-.015.03-.03.054 0 0zm12.456-4.35c-1.006 0-1.998.23-2.9.675-.295-.595-.6-1.115-.65-1.505-.06-.455-.125-.725-.055-1.265s.385-1.305.38-1.36c-.005-.055-.07-.33-.715-.335s-1.2.125-1.265.295a6.09 6.09 0 0 0-.265.955c-.115.585-1.289 2.675-1.954 3.765-.22-.425-.405-.8-.445-1.1-.06-.455-.125-.725-.055-1.265s.385-1.305.38-1.36c-.005-.055-.07-.33-.714-.335s-1.2.125-1.265.295c-.065.17-.135.57-.265.955s-1.695 3.865-2.104 4.77c-.21.46-.39.83-.52 1.08-.02.04-.035.065-.045.085.015-.025.025-.05.025-.04-.11.215-.175.335-.175.335v.005c-.085.16-.18.305-.225.305-.03 0-.095-.42.015-.995.235-1.21.79-3.09.785-3.155-.005-.035.105-.36-.365-.535-.455-.165-.62.11-.66.11s-.07.1-.07.1.505-2.12-.97-2.12c-.92 0-2.2 1.01-2.829 1.925-.395.215-1.25.68-2.15 1.175l-1.035.57c-.025-.025-.045-.05-.07-.075-1.79-1.91-5.094-3.26-4.954-5.825.05-.935.375-3.39 6.354-6.37 4.9-2.44 8.817-1.77 9.492-.28.97 2.125-2.095 6.08-7.183 6.65-1.94.215-2.959-.535-3.214-.815-.265-.295-.305-.31-.405-.255-.165.09-.06.35 0 .505.15.395.775 1.095 1.84 1.445.935.305 3.209.475 5.958-.59 3.089-1.19 5.494-4.505 4.788-7.28-.718-2.82-5.394-3.745-9.815-2.175-2.635.935-5.484 2.405-7.533 4.32C.26 11.361-.129 13.346.031 14.176c.57 2.945 4.629 4.865 6.253 6.285l-.225.125c-.815.405-3.909 2.025-4.684 3.735-.875 1.94.145 3.33.814 3.52 2.09.58 4.229-.465 5.379-2.18s1.01-3.955.48-4.975c-.005-.015-.015-.025-.02-.04a72.558 72.558 0 0 1 1.815-1.04c-.2.54-.345 1.19-.42 2.13-.09 1.1.365 2.525.955 3.085.26.245.574.25.77.25.69 0 1-.57 1.345-1.25.425-.83.8-1.795.8-1.795s-.47 2.61.815 2.61c.47 0 .94-.605 1.15-.915v.005s.01-.02.035-.06c.05-.075.075-.12.075-.12v-.015c.19-.325.605-1.07 1.23-2.3.81-1.59 1.584-3.575 1.584-3.575.075.436.179.867.31 1.29.14.475.435.995.67 1.5-.19.26-.305.41-.305.41 0 .004.002.007.005.01-.15.2-.32.415-.495.625-.639.76-1.4 1.63-1.5 1.88-.12.295-.09.515.14.685.17.13.47.15.785.125.575-.04.98-.18 1.175-.27a4.11 4.11 0 0 0 1.01-.53c.625-.46 1.005-1.12.97-1.99-.02-.48-.175-.96-.365-1.41.055-.08.115-.165.17-.25a26.716 26.716 0 0 0 1.755-3.031c.075.436.178.867.31 1.29.12.405.355.85.57 1.285-.93.755-1.505 1.63-1.704 2.205-.37 1.065-.08 1.545.465 1.655.245.05.595-.065.855-.175.386-.129.75-.316 1.079-.555.625-.46 1.23-1.105 1.189-1.98-.015-.395-.125-.79-.27-1.17.785-.33 1.805-.51 3.105-.36 2.784.325 3.329 2.065 3.224 2.79s-.69 1.13-.885 1.25c-.195.12-.255.165-.24.255.025.13.115.125.28.095.23-.04 1.46-.59 1.515-1.935.08-1.7-1.555-3.57-4.45-3.555zM6.089 25.031c-.92 1.005-2.209 1.385-2.764 1.065-.595-.346-.36-1.825.774-2.896.69-.65 1.58-1.25 2.17-1.62.135-.08.33-.2.57-.345a.828.828 0 0 1 .06-.035c.045-.03.095-.055.145-.085.414 1.52.015 2.86-.955 3.915zm6.718-4.57c-.32.785-.994 2.785-1.405 2.68-.35-.09-.565-1.615-.07-3.115.25-.755.78-1.655 1.095-2.005.505-.565 1.06-.745 1.19-.52.175.295-.61 2.47-.81 2.96zm5.55 2.65c-.135.07-.26.115-.32.08-.045-.025.055-.12.055-.12s.695-.745.97-1.085c.16-.2.345-.435.545-.695 0 .025.005.05.005.08-.006.895-.866 1.5-1.256 1.74zm4.28-.975c-.1-.07-.085-.305.25-1.035.13-.285.43-.765.95-1.225.059.174.091.356.095.54-.005 1.125-.81 1.545-1.295 1.72z"/></symbol></defs></svg>