<svg aria-hidden="true" style="position: absolute; width: 0; height: 0; overflow: hidden;" version="1.1" xmlns="http://www.w3.org/2000/svg" xmlns:xlink="http://www.w3.org/1999/xlink">
<defs>
<symbol id="icon-css3" viewBox="0 0 32 32">
<path fill="#131313" style="fill: var(--color1, #131313)" d="M22.308 1.464h-1.846l1.92 2.083v0.992h-3.954v-1.161h1.919l-1.919-2.083v-0.993h3.88v1.162zM17.644 1.464h-1.846l1.92 2.083v0.992h-3.954v-1.161h1.92l-1.92-2.083v-0.993h3.88v1.162zM13.026 1.512h-1.992v1.818h1.992v1.21h-3.408v-4.237h3.408v1.21z"></path>
<path fill="#1572b6" style="fill: var(--color2, #1572b6)" d="M6.903 29.177l-2.024-22.703h22.242l-2.026 22.7-9.108 2.526-9.083-2.522z"></path>
<path fill="#33a9dc" style="fill: var(--color3, #33a9dc)" d="M16 29.768l7.36-2.041 1.732-19.398h-9.091v21.438z"></path>
<path fill="#fff" style="fill: var(--color4, #fff)" d="M16 16.555h3.684l0.255-2.851h-3.939v-2.784h6.982l-0.067 0.747-0.684 7.673h-6.231v-2.784z"></path>
<path fill="#ebebeb" style="fill: var(--color5, #ebebeb)" d="M16.017 23.787l-0.012 0.003-3.101-0.837-0.198-2.221h-2.795l0.39 4.372 5.704 1.583 0.013-0.004v-2.897z"></path>
<path fill="#fff" style="fill: var(--color4, #fff)" d="M19.448 19.221l-0.335 3.729-3.105 0.838v2.897l5.708-1.582 0.042-0.471 0.485-5.412h-2.794z"></path>
<path fill="#ebebeb" style="fill: var(--color5, #ebebeb)" d="M16.010 10.919v2.784h-6.726l-0.056-0.626-0.127-1.412-0.067-0.747h6.975zM16 16.555v2.785h-3.062l-0.056-0.626-0.127-1.412-0.067-0.747h3.311z"></path>
</symbol>
<symbol id="icon-html5" viewBox="0 0 32 32">
<path fill="#e44d26" style="fill: var(--color6, #e44d26)" d="M6.963 29.088l-2.011-22.553h22.094l-2.013 22.549-9.048 2.508z"></path>
<path fill="#f16529" style="fill: var(--color7, #f16529)" d="M16 29.676l7.311-2.027 1.72-19.269h-9.031z"></path>
<path fill="#ebebeb" style="fill: var(--color5, #ebebeb)" d="M16 16.744h-3.66l-0.252-2.833h3.913v-2.766h-6.936l0.066 0.742 0.68 7.622h6.19zM16 23.928l-0.012 0.003-3.080-0.832-0.197-2.206h-2.777l0.387 4.343 5.666 1.573 0.013-0.004z"></path>
<path fill="#000" style="fill: var(--color8, #000)" d="M7.008 0.407h1.405v1.389h1.286v-1.389h1.406v4.205h-1.406v-1.408h-1.286v1.408h-1.406v-4.205zM12.954 1.802h-1.238v-1.395h3.881v1.395h-1.238v2.811h-1.406v-2.811zM16.214 0.407h1.465l0.902 1.478 0.901-1.478h1.466v4.205h-1.4v-2.084l-0.967 1.495h-0.024l-0.968-1.495v2.084h-1.375v-4.205zM21.648 0.407h1.406v2.816h1.977v1.39h-3.383v-4.206z"></path>
<path fill="#fff" style="fill: var(--color4, #fff)" d="M15.991 16.744v2.766h3.406l-0.321 3.587-3.085 0.833v2.878l5.671-1.572 0.041-0.468 0.65-7.282 0.067-0.742h-0.745zM15.991 11.146v2.766h6.681l0.055-0.622 0.126-1.402 0.066-0.742z"></path>
</symbol>
<symbol id="icon-JavaScript" viewBox="0 0 32 32">
<path d="M26.507 2.667h-21.027c-0.8 0-1.413 0.693-1.32 1.48l2.4 21.627c0.053 0.533 0.44 0.987 0.96 1.133l8.107 2.32c0.24 0.067 0.493 0.067 0.733 0l8.107-2.32c0.52-0.147 0.893-0.6 0.96-1.133l2.4-21.627c0.093-0.787-0.52-1.48-1.32-1.48zM15.16 21.32c0 0.32-0.147 0.613-0.4 0.8-0.173 0.133-0.387 0.2-0.6 0.2-0.093 0-0.187-0.013-0.28-0.040l-4.16-1.2c-0.533-0.16-0.84-0.707-0.68-1.24 0.147-0.533 0.707-0.827 1.24-0.68l2.88 0.827v-10.64c0-0.547 0.453-1 1-1s1 0.453 1 1v11.973zM23 20.133c0 0.453-0.307 0.853-0.76 0.973l-4.8 1.2c-0.080 0.027-0.16 0.027-0.24 0.027-0.453 0-0.853-0.307-0.973-0.76-0.133-0.533 0.187-1.080 0.733-1.213l4.040-1.013v-2.267l-3.053 0.44c-0.293 0.040-0.573-0.040-0.8-0.24-0.213-0.187-0.347-0.467-0.347-0.76v-6.6c0-0.493 0.36-0.92 0.853-0.987l4.2-0.6c0.547-0.080 1.053 0.307 1.133 0.853s-0.307 1.053-0.853 1.133l-3.347 0.48v4.573l3.053-0.44c0.293-0.040 0.573 0.040 0.8 0.24 0.213 0.187 0.347 0.467 0.347 0.76v4.2h0.013z"></path>
</symbol>
<symbol id="icon-newYorkTimes" viewBox="0 0 32 32">
<path d="M28.363 19.753h-0.131c-0.996 2.732-3.113 4.908-5.817 5.977v-5.977l3.259-2.909-3.259-2.909v-4.072c2.851 0.008 5.18-2.271 5.236-5.12 0-3.505-3.345-4.741-5.236-4.741-0.489-0.009-0.979 0.044-1.455 0.16v0.175h0.741c1.068-0.188 2.087 0.525 2.275 1.593 0.011 0.059 0.019 0.12 0.024 0.181-0.044 1.052-0.933 1.868-1.984 1.823-0.027-0.001-0.055-0.003-0.081-0.005-3.259 0-7.097-2.647-11.272-2.647-3.267-0.175-6.065 2.308-6.284 5.571-0.101 2.043 1.299 3.856 3.301 4.276v-0.16c-0.612-0.393-0.959-1.092-0.901-1.819 0.099-1.353 1.276-2.372 2.631-2.273 0.015 0.003 0.031 0.004 0.045 0.005 3.505 0 9.163 2.909 12.668 2.909h0.131v4.189l-3.259 2.909 3.259 2.909v6.065c-1.304 0.429-2.671 0.641-4.044 0.625-2.231 0.112-4.424-0.608-6.152-2.021l5.905-2.647v-11.887l-8.261 3.636c0.789-2.333 2.527-4.224 4.785-5.207v-0.131c-6.021 1.339-10.851 5.657-10.851 11.607 0 6.924 5.367 12.16 13.091 12.16 8.015 0 11.636-5.817 11.636-11.752v-0.495zM11.811 24.248c-1.817-1.816-2.788-4.313-2.676-6.88-0.021-1.173 0.145-2.341 0.495-3.461l2.735-1.251v11.301l-0.553 0.291z"></path>
</symbol>
<symbol id="icon-nodeJS" viewBox="0 0 32 32">
<path d="M15.815 25.8c-0.105 0-0.21-0.030-0.305-0.080l-0.96-0.57c-0.145-0.080-0.075-0.11-0.025-0.125 0.19-0.065 0.23-0.080 0.435-0.2 0.020-0.010 0.050-0.005 0.070 0.005l0.74 0.44c0.025 0.015 0.065 0.015 0.090 0l2.89-1.67c0.025-0.015 0.045-0.045 0.045-0.080v-3.335c0-0.035-0.015-0.065-0.045-0.080l-2.89-1.665c-0.025-0.015-0.060-0.015-0.090 0l-2.89 1.665c-0.030 0.015-0.045 0.050-0.045 0.080v3.335c0 0.030 0.020 0.060 0.045 0.075l0.79 0.455c0.43 0.215 0.695-0.040 0.695-0.29v-3.295c0-0.045 0.035-0.085 0.085-0.085h0.365c0.045 0 0.085 0.035 0.085 0.085v3.295c0 0.575-0.31 0.9-0.855 0.9-0.165 0-0.3 0-0.665-0.18l-0.76-0.435c-0.185-0.11-0.305-0.31-0.305-0.525v-3.335c0-0.215 0.115-0.42 0.305-0.525l2.89-1.67c0.185-0.105 0.425-0.105 0.605 0l2.89 1.67c0.185 0.11 0.305 0.31 0.305 0.525v3.335c0 0.215-0.115 0.42-0.305 0.525l-2.89 1.67c-0.085 0.055-0.19 0.085-0.3 0.085zM18.15 22.51c0-0.625-0.42-0.79-1.31-0.91-0.9-0.12-0.99-0.18-0.99-0.39 0-0.175 0.075-0.405 0.74-0.405 0.595 0 0.815 0.13 0.905 0.53 0.010 0.040 0.040 0.065 0.080 0.065h0.375c0.025 0 0.045-0.010 0.060-0.025 0.015-0.020 0.025-0.040 0.020-0.065-0.060-0.69-0.515-1.010-1.44-1.010-0.825 0-1.315 0.35-1.315 0.93 0 0.635 0.49 0.805 1.28 0.885 0.945 0.095 1.020 0.23 1.020 0.415 0 0.325-0.26 0.46-0.87 0.46-0.765 0-0.935-0.19-0.99-0.57-0.005-0.040-0.040-0.070-0.085-0.070h-0.375c-0.045 0-0.085 0.035-0.085 0.085 0 0.485 0.265 1.065 1.53 1.065 0.925 0 1.45-0.36 1.45-0.99zM20.875 20.005c0 0.305-0.25 0.555-0.555 0.555s-0.555-0.25-0.555-0.555c0-0.315 0.26-0.555 0.555-0.555 0.3-0.005 0.555 0.24 0.555 0.555zM20.785 20.005c0-0.26-0.21-0.465-0.47-0.465-0.255 0-0.465 0.205-0.465 0.465s0.21 0.47 0.465 0.47c0.26-0.005 0.47-0.215 0.47-0.47zM20.56 20.315h-0.13c-0.005-0.030-0.025-0.19-0.025-0.195-0.010-0.035-0.020-0.055-0.065-0.055h-0.11v0.25h-0.12v-0.625h0.215c0.075 0 0.22 0 0.22 0.165 0 0.115-0.075 0.14-0.12 0.155 0.085 0.005 0.090 0.060 0.105 0.14 0.005 0.050 0.015 0.135 0.030 0.165zM20.42 19.875c0-0.085-0.060-0.085-0.090-0.085h-0.1v0.175h0.095c0.080 0 0.095-0.055 0.095-0.090zM6.865 12.75c0-0.135-0.070-0.255-0.185-0.32l-3.065-1.765c-0.050-0.030-0.11-0.045-0.17-0.050h-0.030c-0.060 0-0.115 0.020-0.17 0.050l-3.060 1.765c-0.115 0.065-0.185 0.19-0.185 0.32l0.005 4.75c0 0.065 0.035 0.125 0.090 0.16s0.125 0.035 0.185 0l1.82-1.045c0.115-0.070 0.185-0.19 0.185-0.32v-2.22c0-0.13 0.070-0.255 0.185-0.32l0.775-0.445c0.060-0.035 0.12-0.050 0.185-0.050s0.13 0.015 0.185 0.050l0.775 0.445c0.115 0.065 0.185 0.19 0.185 0.32v2.22c0 0.13 0.070 0.255 0.185 0.32l1.82 1.045c0.055 0.035 0.13 0.035 0.185 0 0.055-0.030 0.090-0.095 0.090-0.16l0.010-4.75zM23.625 7.565v8.82c0 0.13-0.070 0.255-0.185 0.32l-3.065 1.77c-0.115 0.065-0.255 0.065-0.37 0l-3.065-1.77c-0.115-0.065-0.185-0.19-0.185-0.32v-3.54c0-0.13 0.070-0.255 0.185-0.32l3.065-1.77c0.115-0.065 0.255-0.065 0.37 0l0.765 0.44c0.085 0.050 0.195-0.015 0.195-0.11v-4.7c0-0.14 0.15-0.23 0.275-0.16l1.825 1.020c0.115 0.060 0.19 0.185 0.19 0.32zM21.325 14.010c0-0.035-0.020-0.065-0.045-0.080l-1.050-0.61c-0.030-0.015-0.065-0.015-0.095 0l-1.050 0.61c-0.030 0.015-0.045 0.045-0.045 0.080v1.215c0 0.035 0.020 0.065 0.045 0.080l1.050 0.605c0.030 0.015 0.065 0.015 0.090 0l1.050-0.605c0.030-0.015 0.045-0.045 0.045-0.080v-1.215zM31.815 13.975c0.115-0.065 0.185-0.19 0.185-0.32v-0.855c0-0.13-0.070-0.255-0.185-0.32l-3.045-1.77c-0.115-0.065-0.255-0.065-0.37 0l-3.065 1.77c-0.115 0.065-0.185 0.19-0.185 0.32v3.54c0 0.135 0.070 0.255 0.185 0.32l3.045 1.735c0.11 0.065 0.25 0.065 0.365 0l1.84-1.025c0.125-0.070 0.125-0.25 0-0.32l-3.085-1.77c-0.060-0.035-0.095-0.095-0.095-0.16v-1.11c0-0.065 0.035-0.125 0.095-0.16l0.96-0.555c0.055-0.035 0.13-0.035 0.185 0l0.96 0.555c0.055 0.035 0.095 0.095 0.095 0.16v0.87c0 0.14 0.155 0.23 0.28 0.16l1.835-1.065zM27.95 14.15c-0.020 0.015-0.035 0.035-0.035 0.060v0.68c0 0.025 0.015 0.050 0.035 0.060l0.59 0.34c0.020 0.015 0.050 0.015 0.070 0l0.59-0.34c0.020-0.015 0.035-0.035 0.035-0.060v-0.68c0-0.025-0.015-0.050-0.035-0.060l-0.59-0.34c-0.020-0.015-0.050-0.015-0.070 0l-0.59 0.34zM15.24 16.325v-3.52c0-0.13-0.080-0.255-0.195-0.32l-3.055-1.76c-0.105-0.060-0.25-0.070-0.37 0l-3.055 1.76c-0.115 0.065-0.195 0.185-0.195 0.32v3.52c0 0.14 0.095 0.26 0.2 0.32l3.060 1.76c0.12 0.070 0.26 0.065 0.37 0l3.050-1.76c0.090-0.050 0.155-0.135 0.18-0.235 0.005-0.025 0.010-0.055 0.010-0.085zM11.525 10.080l-0.040 0.025h0.055l-0.015-0.025zM15.335 16.59l-0.020-0.035v0.045l0.020-0.010z"></path>
</symbol>
<symbol id="icon-Rest-API" viewBox="0 0 32 32">
<path fill="#01b5e6" style="fill: var(--color9, #01b5e6)" d="M20.787 11.015c-0.080-0.104-0.229-0.124-0.333-0.044l-0.292 0.221c-0.127-0.107-0.268-0.197-0.422-0.267l0.054-0.396c0.018-0.13-0.073-0.25-0.203-0.267l-0.492-0.067c-0.13-0.017-0.25 0.074-0.267 0.204l-0.050 0.362c-0.168 0.015-0.332 0.052-0.486 0.11l-0.242-0.318c-0.079-0.104-0.228-0.124-0.332-0.045l-0.395 0.3c-0.104 0.079-0.124 0.228-0.045 0.331l0.221 0.292c-0.105 0.126-0.196 0.269-0.266 0.421l-0.396-0.054c-0.13-0.017-0.249 0.073-0.267 0.203l-0.067 0.492c-0.019 0.13 0.073 0.25 0.203 0.267l0.362 0.050c0.015 0.168 0.052 0.331 0.11 0.486l-0.318 0.242c-0.104 0.079-0.124 0.228-0.045 0.332l0.3 0.395c0.079 0.104 0.228 0.124 0.332 0.045l0.292-0.221c0.126 0.105 0.269 0.196 0.421 0.266l-0.054 0.396c-0.017 0.13 0.073 0.25 0.203 0.267l0.492 0.067c0.13 0.017 0.25-0.073 0.267-0.203l0.050-0.362c0.169-0.015 0.332-0.052 0.487-0.11l0.242 0.318c0.079 0.103 0.228 0.124 0.332 0.045l0.395-0.3c0.104-0.079 0.125-0.228 0.046-0.332l-0.222-0.292c0.107-0.126 0.197-0.267 0.267-0.421l0.396 0.054c0.13 0.019 0.25-0.073 0.267-0.203l0.067-0.492c0.017-0.13-0.073-0.25-0.203-0.267l-0.362-0.050c-0.015-0.168-0.052-0.332-0.11-0.486l0.318-0.242c0.104-0.079 0.124-0.228 0.045-0.332l-0.3-0.395zM12.323 17.963v-1.91h0.984c0.183 0 0.322 0.015 0.418 0.047 0.096 0.031 0.175 0.089 0.233 0.174 0.059 0.086 0.089 0.189 0.089 0.31 0 0.105-0.023 0.198-0.068 0.274-0.045 0.078-0.108 0.14-0.186 0.188-0.050 0.030-0.119 0.056-0.207 0.075 0.071 0.024 0.122 0.046 0.153 0.071 0.022 0.016 0.053 0.050 0.094 0.101s0.068 0.091 0.082 0.119l0.287 0.552h-0.667l-0.315-0.582c-0.041-0.075-0.075-0.125-0.107-0.147-0.043-0.029-0.091-0.044-0.145-0.044h-0.052v0.773h-0.593v-0.001zM14.404 21.289h-1.102l-0.159 0.519h-0.993l1.184-3.148h1.065l1.18 3.148h-1.019l-0.156-0.519zM14.198 20.607l-0.344-1.132-0.345 1.132h0.689zM15.808 18.66h1.618c0.353 0 0.617 0.083 0.792 0.251s0.263 0.408 0.263 0.717c0 0.318-0.096 0.567-0.287 0.747s-0.484 0.269-0.876 0.269h-0.534v1.165h-0.976v-3.148zM16.784 20.005h0.24c0.189 0 0.322-0.032 0.398-0.098 0.076-0.065 0.115-0.149 0.115-0.25 0-0.098-0.034-0.183-0.1-0.251s-0.191-0.103-0.374-0.103h-0.279v0.703zM18.875 18.66h0.976v3.148h-0.976v-3.148zM12.916 16.828h0.249c0.027 0 0.079-0.009 0.156-0.027 0.039-0.008 0.072-0.028 0.096-0.060 0.025-0.032 0.037-0.069 0.037-0.111 0-0.061-0.020-0.11-0.059-0.142-0.039-0.034-0.112-0.050-0.22-0.050h-0.259v0.39zM14.314 16.053h1.58v0.407h-0.987v0.304h0.916v0.389h-0.916v0.376h1.016v0.432h-1.609v-1.909zM16.063 17.331l0.56-0.035c0.012 0.091 0.037 0.16 0.074 0.207 0.061 0.076 0.148 0.116 0.26 0.116 0.083 0 0.149-0.020 0.194-0.059s0.068-0.086 0.068-0.138c0-0.050-0.022-0.094-0.065-0.133s-0.144-0.075-0.302-0.111c-0.258-0.058-0.442-0.135-0.553-0.232s-0.167-0.219-0.167-0.368c0-0.098 0.029-0.191 0.086-0.278s0.142-0.156 0.257-0.206c0.115-0.050 0.271-0.074 0.47-0.074 0.244 0 0.429 0.045 0.558 0.137 0.127 0.091 0.204 0.235 0.228 0.434l-0.554 0.034c-0.015-0.087-0.046-0.151-0.093-0.189-0.047-0.039-0.113-0.059-0.196-0.059-0.068 0-0.12 0.015-0.155 0.044s-0.052 0.065-0.052 0.107c0 0.030 0.015 0.057 0.043 0.082 0.028 0.024 0.093 0.049 0.197 0.071 0.258 0.056 0.443 0.112 0.554 0.169s0.193 0.127 0.243 0.212c0.051 0.083 0.076 0.178 0.076 0.282 0 0.123-0.034 0.235-0.102 0.338-0.067 0.103-0.162 0.182-0.284 0.235s-0.274 0.080-0.46 0.080c-0.324 0-0.55-0.063-0.675-0.188-0.125-0.127-0.196-0.286-0.213-0.478zM17.881 16.053h1.795v0.472h-0.602v1.438h-0.59v-1.438h-0.603v-0.472zM15.895 11.519c-0.212-0.016-0.426-0.014-0.638 0.007-0.652 0.063-1.285 0.3-1.808 0.706-0.605 0.469-1.065 1.17-1.242 2.1l-0.056 0.291-0.289 0.051c-0.284 0.050-0.537 0.118-0.759 0.205-0.215 0.083-0.407 0.186-0.575 0.308-0.134 0.097-0.25 0.206-0.348 0.324-0.304 0.365-0.446 0.822-0.442 1.285 0.003 0.47 0.156 0.945 0.439 1.335 0.105 0.145 0.227 0.278 0.366 0.394 0.141 0.117 0.3 0.214 0.478 0.287 0.101 0.042 0.208 0.076 0.321 0.104v0.867c-0.232-0.042-0.444-0.104-0.644-0.186-0.263-0.109-0.495-0.249-0.7-0.42-0.194-0.162-0.365-0.346-0.509-0.546-0.385-0.532-0.594-1.183-0.598-1.831-0.005-0.655 0.199-1.307 0.639-1.835 0.142-0.171 0.31-0.329 0.502-0.468 0.223-0.162 0.479-0.299 0.769-0.411 0.199-0.078 0.412-0.142 0.637-0.194 0.255-1.012 0.797-1.791 1.495-2.332 0.653-0.506 1.439-0.801 2.248-0.879 0.425-0.041 0.855-0.022 1.277 0.057-0.009 0.038-0.017 0.076-0.022 0.116l-0.001 0.007c-0.008 0.066-0.012 0.132-0.008 0.199-0.089 0.035-0.172 0.082-0.248 0.14l-0.003 0.002c-0.112 0.085-0.207 0.193-0.278 0.318zM22.019 13.742c0.065 0.059 0.127 0.12 0.189 0.186 0.124 0.133 0.241 0.284 0.351 0.451 0.37 0.57 0.56 1.33 0.552 2.075-0.008 0.73-0.205 1.458-0.608 1.992-0.263 0.349-0.6 0.633-1.003 0.859-0.277 0.155-0.588 0.284-0.927 0.388v-0.897c0.183-0.068 0.353-0.145 0.509-0.232 0.304-0.17 0.553-0.377 0.74-0.626 0.289-0.385 0.432-0.931 0.438-1.49 0.007-0.587-0.137-1.176-0.416-1.604-0.080-0.124-0.168-0.235-0.26-0.335-0.036-0.038-0.072-0.074-0.109-0.109 0.006-0.058 0.008-0.117 0.005-0.176 0.089-0.035 0.172-0.082 0.248-0.14l0.003-0.002c0.119-0.091 0.219-0.207 0.289-0.34zM19.084 11.674c0.534 0.073 0.906 0.565 0.833 1.099s-0.565 0.908-1.098 0.835c-0.534-0.073-0.907-0.565-0.833-1.099s0.565-0.908 1.099-0.835z"></path>
</symbol>
<symbol id="icon-sass" viewBox="0 0 32 32">
<path d="M15.092 22.146c-0.015 0.030-0.030 0.054 0 0zM27.548 17.796c-1.006 0-1.998 0.23-2.9 0.675-0.295-0.595-0.6-1.115-0.65-1.505-0.060-0.455-0.125-0.725-0.055-1.265s0.385-1.305 0.38-1.36c-0.005-0.055-0.070-0.33-0.715-0.335s-1.2 0.125-1.265 0.295c-0.114 0.311-0.203 0.63-0.265 0.955-0.115 0.585-1.289 2.675-1.954 3.765-0.22-0.425-0.405-0.8-0.445-1.1-0.060-0.455-0.125-0.725-0.055-1.265s0.385-1.305 0.38-1.36c-0.005-0.055-0.070-0.33-0.714-0.335s-1.2 0.125-1.265 0.295c-0.065 0.17-0.135 0.57-0.265 0.955s-1.695 3.865-2.104 4.77c-0.21 0.46-0.39 0.83-0.52 1.080-0.020 0.040-0.035 0.065-0.045 0.085 0.015-0.025 0.025-0.050 0.025-0.040-0.11 0.215-0.175 0.335-0.175 0.335v0.005c-0.085 0.16-0.18 0.305-0.225 0.305-0.030 0-0.095-0.42 0.015-0.995 0.235-1.21 0.79-3.090 0.785-3.155-0.005-0.035 0.105-0.36-0.365-0.535-0.455-0.165-0.62 0.11-0.66 0.11s-0.070 0.1-0.070 0.1c0 0 0.505-2.12-0.97-2.12-0.92 0-2.2 1.010-2.829 1.925-0.395 0.215-1.25 0.68-2.15 1.175-0.345 0.19-0.7 0.385-1.035 0.57-0.025-0.025-0.045-0.050-0.070-0.075-1.79-1.91-5.094-3.26-4.954-5.825 0.050-0.935 0.375-3.39 6.354-6.37 4.9-2.44 8.817-1.77 9.492-0.28 0.97 2.125-2.095 6.080-7.183 6.65-1.94 0.215-2.959-0.535-3.214-0.815-0.265-0.295-0.305-0.31-0.405-0.255-0.165 0.090-0.060 0.35 0 0.505 0.15 0.395 0.775 1.095 1.84 1.445 0.935 0.305 3.209 0.475 5.958-0.59 3.089-1.19 5.494-4.505 4.788-7.28-0.718-2.82-5.394-3.745-9.815-2.175-2.635 0.935-5.484 2.405-7.533 4.32-2.435 2.28-2.824 4.265-2.664 5.095 0.57 2.945 4.629 4.865 6.253 6.285-0.080 0.045-0.155 0.085-0.225 0.125-0.815 0.405-3.909 2.025-4.684 3.735-0.875 1.94 0.145 3.33 0.814 3.52 2.090 0.58 4.229-0.465 5.379-2.18s1.010-3.955 0.48-4.975c-0.005-0.015-0.015-0.025-0.020-0.040 0.21-0.125 0.425-0.25 0.64-0.375 0.415-0.245 0.82-0.47 1.175-0.665-0.2 0.54-0.345 1.19-0.42 2.13-0.090 1.1 0.365 2.525 0.955 3.085 0.26 0.245 0.574 0.25 0.77 0.25 0.69 0 1-0.57 1.345-1.25 0.425-0.83 0.8-1.795 0.8-1.795s-0.47 2.61 0.815 2.61c0.47 0 0.94-0.605 1.15-0.915v0.005c0 0 0.010-0.020 0.035-0.060 0.050-0.075 0.075-0.12 0.075-0.12v-0.015c0.19-0.325 0.605-1.070 1.23-2.3 0.81-1.59 1.584-3.575 1.584-3.575 0.075 0.436 0.179 0.867 0.31 1.29 0.14 0.475 0.435 0.995 0.67 1.5-0.19 0.26-0.305 0.41-0.305 0.41 0 0.004 0.002 0.007 0.005 0.010-0.15 0.2-0.32 0.415-0.495 0.625-0.639 0.76-1.4 1.63-1.5 1.88-0.12 0.295-0.090 0.515 0.14 0.685 0.17 0.13 0.47 0.15 0.785 0.125 0.575-0.040 0.98-0.18 1.175-0.27 0.36-0.129 0.699-0.307 1.010-0.53 0.625-0.46 1.005-1.12 0.97-1.99-0.020-0.48-0.175-0.96-0.365-1.41 0.055-0.080 0.115-0.165 0.17-0.25 0.989-1.445 1.755-3.031 1.755-3.031 0.075 0.436 0.178 0.867 0.31 1.29 0.12 0.405 0.355 0.85 0.57 1.285-0.93 0.755-1.505 1.63-1.704 2.205-0.37 1.065-0.080 1.545 0.465 1.655 0.245 0.050 0.595-0.065 0.855-0.175 0.386-0.129 0.75-0.316 1.079-0.555 0.625-0.46 1.23-1.105 1.189-1.98-0.015-0.395-0.125-0.79-0.27-1.17 0.785-0.33 1.805-0.51 3.105-0.36 2.784 0.325 3.329 2.065 3.224 2.79s-0.69 1.13-0.885 1.25c-0.195 0.12-0.255 0.165-0.24 0.255 0.025 0.13 0.115 0.125 0.28 0.095 0.23-0.040 1.46-0.59 1.515-1.935 0.080-1.7-1.555-3.57-4.45-3.555zM6.089 25.031c-0.92 1.005-2.209 1.385-2.764 1.065-0.595-0.346-0.36-1.825 0.774-2.896 0.69-0.65 1.58-1.25 2.17-1.62 0.135-0.080 0.33-0.2 0.57-0.345 0.040-0.025 0.060-0.035 0.060-0.035 0.045-0.030 0.095-0.055 0.145-0.085 0.414 1.52 0.015 2.86-0.955 3.915zM12.807 20.461c-0.32 0.785-0.994 2.785-1.405 2.68-0.35-0.090-0.565-1.615-0.070-3.115 0.25-0.755 0.78-1.655 1.095-2.005 0.505-0.565 1.060-0.745 1.19-0.52 0.175 0.295-0.61 2.47-0.81 2.96zM18.357 23.111c-0.135 0.070-0.26 0.115-0.32 0.080-0.045-0.025 0.055-0.12 0.055-0.12s0.695-0.745 0.97-1.085c0.16-0.2 0.345-0.435 0.545-0.695 0 0.025 0.005 0.050 0.005 0.080-0.006 0.895-0.866 1.5-1.256 1.74zM22.637 22.136c-0.1-0.070-0.085-0.305 0.25-1.035 0.13-0.285 0.43-0.765 0.95-1.225 0.059 0.174 0.091 0.356 0.095 0.54-0.005 1.125-0.81 1.545-1.295 1.72z"></path>
</symbol>
</defs>
</svg>
